HIERARCHY
ROOT root
{
	OFFSET 0.000000 0.000000 0.000000
	CHANNELS 6 Xposition Yposition Zposition Zrotation Yrotation Xrotation
	JOINT lhip
	{
		OFFSET 0.058581 -0.082280 -0.017664
		CHANNELS 3 Zrotation Yrotation Xrotation
		JOINT lknee
		{
			OFFSET 0.043451 -0.386469 0.008037
			CHANNELS 3 Zrotation Yrotation Xrotation
			JOINT lankle
			{
				OFFSET -0.014790 -0.426874 -0.037428
				CHANNELS 3 Zrotation Yrotation Xrotation
				JOINT ltoe
				{
					OFFSET 0.041054 -0.060286 0.122042
					CHANNELS 3 Zrotation Yrotation Xrotation
					End Site
					{
						OFFSET 0.000000 0.000000 0.000000
					}
				}
			}
		}
	}
	JOINT rhip
	{
		OFFSET -0.060310 -0.090513 -0.013543
		CHANNELS 3 Zrotation Yrotation Xrotation
		JOINT rknee
		{
			OFFSET -0.043257 -0.383688 -0.004843
			CHANNELS 3 Zrotation Yrotation Xrotation
			JOINT rankle
			{
				OFFSET 0.019056 -0.420046 -0.034562
				CHANNELS 3 Zrotation Yrotation Xrotation
				JOINT rtoe
				{
					OFFSET -0.034840 -0.062106 0.130323
					CHANNELS 3 Zrotation Yrotation Xrotation
					End Site
					{
						OFFSET 0.000000 0.000000 0.000000
					}
				}
			}
		}
	}
	JOINT lowerback
	{
		OFFSET 0.004439 0.124404 -0.038385
		CHANNELS 3 Zrotation Yrotation Xrotation
		JOINT upperback
		{
			OFFSET 0.004488 0.137956 0.026820
			CHANNELS 3 Zrotation Yrotation Xrotation
			JOINT chest
			{
				OFFSET -0.002265 0.056032 0.002855
				CHANNELS 3 Zrotation Yrotation Xrotation
				JOINT lowerneck
				{
					OFFSET -0.013390 0.211636 -0.033468
					CHANNELS 3 Zrotation Yrotation Xrotation
					JOINT upperneck
					{
						OFFSET 0.010113 0.088937 0.050410
						CHANNELS 3 Zrotation Yrotation Xrotation
						End Site
						{
							OFFSET 0.000000 0.000000 0.000000
						}
					}
				}
				JOINT lclavicle
				{
					OFFSET 0.071702 0.114000 -0.018898
					CHANNELS 3 Zrotation Yrotation Xrotation
					JOINT lshoulder
					{
						OFFSET 0.122921 0.045205 -0.019046
						CHANNELS 3 Zrotation Yrotation Xrotation
						JOINT lelbow
						{
							OFFSET 0.255332 -0.015649 -0.022946
							CHANNELS 3 Zrotation Yrotation Xrotation
							JOINT lwrist
							{
								OFFSET 0.265709 0.012698 -0.007375
								CHANNELS 3 Zrotation Yrotation Xrotation
								End Site
								{
									OFFSET 0.000000 0.000000 0.000000
								}
							}
						}
					}
				}
				JOINT rclavicle
				{
					OFFSET -0.082954 0.112472 -0.023707
					CHANNELS 3 Zrotation Yrotation Xrotation
					JOINT rshoulder
					{
						OFFSET -0.113228 0.046853 -0.008472
						CHANNELS 3 Zrotation Yrotation Xrotation
						JOINT relbow
						{
							OFFSET -0.260127 -0.014369 -0.031269
							CHANNELS 3 Zrotation Yrotation Xrotation
							JOINT rwrist
							{
								OFFSET -0.269108 0.006794 -0.006027
								CHANNELS 3 Zrotation Yrotation Xrotation
								End Site
								{
									OFFSET 0.000000 0.000000 0.000000
								}
							}
						}
					}
				}
			}
		}
	}
}
MOTION
Frames: 8
Frame Time: 0.033333
-1.654923 0.376605 0.942691 93.513900 1.315248 89.011513 -9.263041 -5.111008 -5.598872 -12.329762 -7.796575 38.650784 8.605726 21.499863 -30.326105 0.000000 -0.000000 0.000000 -4.248740 3.471339 -27.514239 -2.960239 -6.906379 83.972524 -0.578427 -20.876472 -19.749933 0.000000 -0.000000 0.000000 1.067050 -3.167238 18.835044 2.309709 1.320728 -8.992369 -0.984551 -0.137922 4.711936 3.180617 -3.518662 -12.952172 -0.555711 -8.047704 0.135628 -22.290744 4.088595 2.371912 -43.000503 4.825514 14.095745 -25.191644 -65.888809 48.744511 4.657764 -6.112042 -5.087696 23.188097 3.063347 -3.298908 54.349651 -4.234434 20.892197 -16.815302 58.080261 9.202754 -10.076413 -3.251866 20.589671 
-1.564120 0.367187 0.914888 96.543161 0.956513 87.187468 -8.435453 -1.943066 4.559193 -13.881072 -13.774764 37.895683 8.101089 21.857059 -37.064719 0.000000 -0.000000 0.000000 -6.883488 3.847675 -38.791804 -0.298417 -8.147916 79.372897 1.452825 -17.998379 -22.429316 0.000000 -0.000000 0.000000 -0.756459 -5.943371 21.394230 2.662851 -0.061137 -5.043332 -0.775366 -2.252747 3.017035 3.930415 0.323880 -15.598779 -0.470803 -8.004522 -1.262461 -23.584088 -0.081851 0.518112 -41.567799 -2.142220 14.786676 -22.729904 -69.125116 45.005209 6.573615 -8.262351 -2.972448 25.251066 1.443881 -3.248331 53.293245 -6.610514 19.822661 -22.951892 61.847173 3.468416 -8.115967 -3.863095 20.128885 
-1.465716 0.359929 0.896031 101.160314 1.784222 87.667486 -4.566306 -0.110304 14.089211 -13.646971 -21.072818 34.481572 5.248966 19.380970 -40.145024 0.000000 -0.000000 0.000000 -9.061092 0.927516 -47.123346 1.560952 -11.014590 64.764611 5.005036 -13.480520 -20.359828 0.000000 -0.000000 0.000000 -0.535138 -10.499890 21.929725 2.540908 -2.225600 -6.280579 -0.161266 -4.525379 3.280248 3.431173 1.888198 -15.206061 0.692928 -5.535241 -1.312475 -22.847193 -2.138343 -0.641083 -43.271229 -9.349037 15.635725 -23.179874 -72.848516 46.177059 9.660365 -9.213956 -2.305326 24.296176 -1.840810 -3.923864 52.409018 -9.916703 19.582721 -19.236975 67.620019 9.293704 -6.365735 -3.882806 20.139562 
-1.328446 0.351547 0.884960 104.725154 3.774799 90.575227 3.890255 1.641470 25.364329 -10.212063 -29.370186 24.712933 -0.090535 10.727640 -34.003467 0.000000 -0.000000 0.000000 -9.670499 -2.123973 -51.748413 3.709719 -16.525184 40.269696 11.455743 -9.109180 -0.499308 0.000000 -0.000000 0.000000 1.059356 -15.235382 16.094662 3.284919 -4.583483 -4.073266 1.682184 -6.855050 1.078700 0.997173 1.373716 -11.808638 1.689257 0.951296 -0.676404 -22.773810 -4.251549 -0.114524 -47.957620 -17.180663 16.754373 -20.823878 -77.619154 43.659331 11.745556 -11.700891 -1.502436 20.762057 -4.508325 -1.555931 48.295775 -11.970482 19.485856 2.656899 74.421741 32.349003 -4.815881 -2.873949 18.045368 
-1.238950 0.347435 0.882579 106.091967 5.008965 91.520277 8.766783 2.206855 29.527994 -8.029426 -29.692799 23.056646 -6.232298 4.618599 -22.110847 0.000000 -0.000000 0.000000 -8.079597 -3.092957 -52.036610 5.557663 -17.650901 30.798317 10.416934 -7.518746 5.060689 0.000000 -0.000000 0.000000 2.030908 -17.463145 12.750095 3.938295 -6.413601 -1.716703 3.198224 -7.602439 -1.222260 -0.867825 1.841270 -9.102646 2.087173 4.398586 -1.197222 -21.941643 -7.427486 1.083773 -51.845317 -19.537341 17.304525 -8.682247 -81.312822 32.507766 11.644231 -11.852909 -0.469292 18.120092 -3.156072 1.684273 45.506575 -12.112291 17.782998 24.932239 76.116586 56.152461 -1.465750 -2.821947 14.241289 
-1.119578 0.344723 0.880347 105.704869 4.993474 90.467183 10.112990 1.351031 29.725137 -9.287810 -22.049399 32.651227 -12.530741 4.807961 -2.347330 0.000000 -0.000000 0.000000 -6.645847 -2.048245 -50.653849 4.423682 -21.764670 34.118352 7.859221 -7.502734 6.799634 0.000000 -0.000000 0.000000 1.526375 -16.487985 12.532469 5.815989 -7.234413 0.875448 4.315892 -10.091754 -4.583518 -2.256778 3.128029 -10.700827 0.859263 6.865455 0.808943 -21.356826 -13.388927 1.444387 -52.835278 -23.309328 18.836807 36.156299 -83.914428 -11.197454 8.809403 -11.873231 1.248908 17.427713 0.277479 1.769584 41.913686 -10.383739 19.530618 42.415755 77.618515 74.107071 0.414400 -2.004784 11.054447 
-1.007993 0.343260 0.874871 103.165902 5.192250 89.845823 6.616212 -1.286395 21.804639 -11.977740 -11.908088 54.920486 -10.944275 11.713915 -9.134012 0.000000 -0.000000 0.000000 -4.178333 2.500061 -45.712216 4.939467 -23.291979 39.446635 -2.366707 -6.422813 -6.994000 0.000000 -0.000000 0.000000 2.369016 -14.519905 12.224456 7.373966 -8.127693 1.980928 3.616601 -9.523884 -5.022717 -3.268988 6.444175 -13.447759 -1.277910 5.039891 1.187053 -19.961322 -20.690778 0.898596 -49.053978 -28.440497 17.605092 62.192439 -81.097746 -36.768387 2.173890 -11.604553 1.208616 19.808598 6.531169 2.934181 40.364828 -3.741736 19.720791 50.409311 81.325162 85.012546 2.018508 -0.947223 6.421759 
-0.914394 0.339325 0.871285 96.598324 5.550960 89.312174 4.353092 -2.914012 7.689315 -10.889749 0.304294 76.200353 -1.417507 16.069172 -6.123293 0.000000 -0.000000 0.000000 0.524758 11.154786 -47.822871 2.762294 -16.696930 52.571506 -5.308610 -13.123808 -14.886387 0.000000 -0.000000 0.000000 1.829637 -11.034848 14.814260 8.922978 -5.509190 1.117255 3.443790 -7.203198 -4.450639 -4.610209 6.951044 -16.709323 -2.132579 4.351411 1.650775 -16.091194 -26.224115 -1.722848 -42.718977 -34.147464 15.513425 59.798626 -78.087515 -37.624884 -0.536170 -7.172011 -3.963266 21.565711 15.040546 2.721828 39.101972 6.974557 22.554879 20.325579 87.168787 55.839312 1.668412 -1.717229 6.626836 
